HIERARCHY
ROOT SpineBase
{
  OFFSET 0.000000 0.000000 0.000000
  CHANNELS 6 Xposition Yposition Zposition Zrotation Xrotation Yrotation
  JOINT SpineMid
  {
    OFFSET -0.000000 37.011344 0.000000
    CHANNELS 3 Zrotation Xrotation Yrotation
    JOINT SpineShoulder
    {
      OFFSET -0.826032 26.855775 -1.665927
      CHANNELS 3 Zrotation Xrotation Yrotation
      JOINT Neck
      {
        OFFSET -0.167103 8.760185 -0.907560
        CHANNELS 3 Zrotation Xrotation Yrotation
        JOINT Head
        {
          OFFSET 6.239172 10.117420 6.449073
          CHANNELS 3 Zrotation Xrotation Yrotation
          End Site
          {
            OFFSET 0 0 0
          }
        }
      }
      JOINT ShoulderLeft
      {
        OFFSET -3.319902 -6.306918 -16.283240
        CHANNELS 3 Zrotation Xrotation Yrotation
        JOINT ElbowLeft
        {
          OFFSET 5.303716 -28.633003 -7.458201
          CHANNELS 3 Zrotation Xrotation Yrotation
          JOINT WristLeft
          {
            OFFSET 8.840773 -25.071931 4.051731
            CHANNELS 3 Zrotation Xrotation Yrotation
            JOINT HandLeft
            {
              OFFSET 0.126688 -8.792604 3.313662
              CHANNELS 3 Zrotation Xrotation Yrotation
              JOINT HandTipLeft
              {
                OFFSET 3.916945 -7.241482 1.429019
                CHANNELS 3 Zrotation Xrotation Yrotation
                End Site
                {
                  OFFSET 0 0 0
                }
              }
              JOINT ThumbLeft
              {
                OFFSET -5.483512 -1.726562 -0.967982
                CHANNELS 3 Zrotation Xrotation Yrotation
                End Site
                {
                  OFFSET 0 0 0
                }
              }
            }
          }
        }
      }
      JOINT ShoulderRight
      {
        OFFSET 5.474145 -5.036369 19.862636
        CHANNELS 3 Zrotation Xrotation Yrotation
        JOINT ElbowRight
        {
          OFFSET 4.931531 -25.714539 20.565680
          CHANNELS 3 Zrotation Xrotation Yrotation
          JOINT WristRight
          {
            OFFSET 0.017834 -24.172201 6.641526
            CHANNELS 3 Zrotation Xrotation Yrotation
            JOINT HandRight
            {
              OFFSET 2.570115 -6.673761 2.626111
              CHANNELS 3 Zrotation Xrotation Yrotation
              JOINT HandTipRight
              {
                OFFSET 0.247413 -0.926778 -0.853070
                CHANNELS 3 Zrotation Xrotation Yrotation
                End Site
                {
                  OFFSET 0 0 0
                }
              }
              JOINT ThumbRight
              {
                OFFSET 0.185659 0.740328 -2.136506
                CHANNELS 3 Zrotation Xrotation Yrotation
                End Site
                {
                  OFFSET 0 0 0
                }
              }
            }
          }
        }
      }
    }
  }
  JOINT HipLeft
  {
    OFFSET -0.459502 1.709523 -9.670792
    CHANNELS 3 Zrotation Xrotation Yrotation
    JOINT KneeLeft
    {
      OFFSET -0.858443 -40.486304 5.610615
      CHANNELS 3 Zrotation Xrotation Yrotation
      JOINT AnkleLeft
      {
        OFFSET -4.202685 -36.169031 6.250270
        CHANNELS 3 Zrotation Xrotation Yrotation
        JOINT FootLeft
        {
          OFFSET 12.814401 -3.634874 -7.850401
          CHANNELS 3 Zrotation Xrotation Yrotation
          End Site
          {
            OFFSET 0 0 0
          }
        }
      }
    }
  }
  JOINT HipRight
  {
    OFFSET 0.893186 -0.581672 1.331084
    CHANNELS 3 Zrotation Xrotation Yrotation
    JOINT KneeRight
    {
      OFFSET -12.659477 -41.012417 6.960120
      CHANNELS 3 Zrotation Xrotation Yrotation
      JOINT AnkleRight
      {
        OFFSET 0.890929 -33.614187 2.821182
        CHANNELS 3 Zrotation Xrotation Yrotation
        JOINT FootRight
        {
          OFFSET 9.072549 -5.795985 -6.799595
          CHANNELS 3 Zrotation Xrotation Yrotation
          End Site
          {
            OFFSET 0 0 0
          }
        }
      }
    }
  }
}
MOTION
Frames: 13
Frame Time: 0.033333
-16.005898 84.070338 336.835717 -2.555446 0.981394 -77.686795 -0.503529 -0.350739 77.568957 -0.185333 0.701076 -0.130115 3.763628 0.266444 -1.439381 0.000000 0.000000 0.000000 0.822094 -2.057785 0.891950 -0.501211 -0.534469 -1.288674 -2.015886 -9.089475 -1.681375 -1.397619 2.429224 -2.976752 0.000000 0.000000 0.000000 0.000000 0.000000 0.000000 3.200378 -2.083692 0.349267 -0.000000 0.000000 0.000000 -0.000000 0.000000 0.000000 -0.000000 0.000000 0.000000 0.000000 0.000000 0.000000 0.000000 0.000000 0.000000 13.148543 11.548835 78.062929 -21.368553 16.259336 -1.090052 2.045224 -13.017343 -5.957822 0.000000 0.000000 0.000000 2.411817 16.179429 79.297119 -35.380174 -8.058480 -5.812899 19.620476 12.348510 8.990831 0.000000 0.000000 0.000000
-16.906007 83.838982 336.146131 -4.142445 1.742510 -74.451200 -1.067219 -0.672707 74.288608 0.295485 0.281417 -0.187687 5.244987 -0.533826 -1.120616 0.000000 0.000000 0.000000 2.091562 -3.093290 1.086120 -0.662163 -0.875727 -1.636915 0.119351 -8.997078 -0.680238 -4.149812 1.737382 -4.232490 0.000000 0.000000 0.000000 0.000000 0.000000 0.000000 4.803051 -2.833858 0.560806 -0.000000 0.000000 0.000000 -0.000000 0.000000 0.000000 -0.000000 0.000000 0.000000 0.000000 0.000000 0.000000 0.000000 0.000000 0.000000 18.667966 8.785940 74.304620 -18.723732 20.950184 -0.011847 -0.320160 -14.393071 -6.976987 0.000000 0.000000 0.000000 5.663251 25.280051 76.585381 -43.560992 -8.967967 -7.439998 22.797178 12.906881 3.827211 0.000000 0.000000 0.000000
-16.616799 83.688332 336.262641 -4.839665 1.870929 -72.024030 -1.405561 -0.826795 71.832853 0.306034 0.207439 -0.233617 10.485093 -2.135468 -2.723750 0.000000 0.000000 0.000000 3.265112 -3.671582 1.105437 -1.669239 -0.875497 -1.778125 3.578871 -8.021870 0.695211 -7.081518 0.487381 -5.508495 0.000000 0.000000 0.000000 0.000000 0.000000 0.000000 5.783793 -3.104730 0.694724 -0.000000 0.000000 0.000000 -0.000000 0.000000 0.000000 -0.685032 0.131171 0.666714 0.000000 0.000000 0.000000 0.000000 0.000000 0.000000 20.560650 2.579894 71.900830 -11.823255 23.964261 0.320290 -2.729835 -14.827822 -7.849570 0.000000 0.000000 0.000000 7.734701 32.121350 74.145944 -46.547393 -9.656183 -8.105692 24.065789 11.433371 -3.668015 0.000000 0.000000 0.000000
-15.457529 83.714304 336.672259 -4.972569 1.665161 -69.266004 -1.852261 -1.008735 69.043334 0.384095 0.137867 -0.250011 12.904440 -2.934781 -3.355237 0.000000 0.000000 0.000000 3.978381 -4.046080 1.032391 -2.705070 -0.893337 -1.898593 5.069129 -6.468985 1.253101 -5.877438 -0.549463 -5.550435 0.000000 0.000000 0.000000 0.000000 0.000000 0.000000 6.220732 -3.113131 0.752007 -0.000000 0.000000 0.000000 -0.000000 0.000000 0.000000 -0.833894 0.133942 0.805003 0.000000 0.000000 0.000000 0.000000 0.000000 0.000000 19.552515 -5.553069 69.385536 -2.148752 25.435724 -0.121937 -4.931891 -14.456318 -8.333059 0.000000 0.000000 0.000000 10.015948 35.846795 70.892363 -44.397796 -9.904814 -7.654543 19.573688 9.088708 -7.406059 0.000000 0.000000 0.000000
-13.539688 83.909605 337.409623 -4.513132 1.117209 -66.877830 -2.502943 -1.342731 66.611082 0.535203 0.021869 -0.244396 14.966437 -3.814673 -3.887463 0.000000 0.000000 0.000000 4.645783 -4.116036 0.832145 -4.788998 -0.778059 -1.958762 7.206378 -4.780673 1.832660 -7.429827 -1.590837 -5.902199 0.000000 0.000000 0.000000 0.000000 0.000000 0.000000 6.227048 -2.846477 0.743622 -0.000000 0.000000 0.000000 -0.000000 0.000000 0.000000 -0.998599 0.129563 0.956126 0.000000 0.000000 0.000000 0.000000 0.000000 0.000000 15.502409 -13.659660 66.817038 9.336960 24.458681 -1.023771 -7.434802 -12.966578 -8.593219 0.000000 0.000000 0.000000 10.873053 38.081787 67.925320 -40.354492 -10.885297 -6.869826 13.540669 6.682151 -10.152558 0.000000 0.000000 0.000000
-11.993650 83.970396 337.923108 -4.774318 0.841737 -65.146739 -2.456193 -1.116914 64.871941 0.737912 -0.092463 -0.228633 16.518127 -4.970606 -3.916266 0.000000 0.000000 0.000000 4.819539 -3.885218 0.719558 -6.763926 -0.728917 -2.158132 10.619654 -3.253995 2.782663 -8.350968 -1.333254 -5.618730 0.000000 0.000000 0.000000 0.000000 0.000000 0.000000 6.108889 -2.442485 0.714923 -0.000000 0.000000 0.000000 -0.000000 0.000000 0.000000 -1.170059 0.117480 1.111548 0.000000 0.000000 0.000000 0.000000 0.000000 0.000000 11.991318 -18.277068 64.368649 17.792174 23.336737 -1.628570 -8.965482 -11.631001 -8.445875 0.000000 0.000000 0.000000 12.393920 39.249652 65.589676 -33.844407 -10.688323 -5.402888 5.656721 4.418094 -11.331708 0.000000 0.000000 0.000000
-10.351962 84.056635 338.336714 -5.060223 0.617247 -64.207141 -2.388098 -0.983866 63.917012 0.647682 -0.068745 -0.243744 20.178216 -7.062036 -4.333045 0.000000 0.000000 0.000000 5.870551 -3.630103 0.581074 -9.606081 -0.674407 -2.247149 14.251523 -2.385901 3.642491 -9.329397 0.906807 -4.413217 0.000000 0.000000 0.000000 0.000000 0.000000 0.000000 6.362582 -2.198841 0.737866 -0.000000 0.000000 0.000000 -0.000000 0.000000 0.000000 -1.357452 0.113679 1.284080 0.000000 0.000000 0.000000 0.000000 0.000000 0.000000 9.731366 -19.527819 62.879638 20.199785 21.418908 -1.398472 -5.235653 -8.118683 -6.055861 0.000000 0.000000 0.000000 13.139055 41.592193 64.102280 -31.859236 -12.163389 -4.821600 1.209851 4.344823 -11.429843 0.000000 0.000000 0.000000
-8.957606 84.240619 338.657343 -5.456865 0.372513 -64.101564 -2.331032 -0.927687 63.783679 0.636650 -0.075058 -0.257614 21.455135 -8.255991 -3.781990 0.000000 0.000000 0.000000 6.881277 -3.323434 0.469465 -11.916819 -0.697690 -2.334761 17.583267 -0.857662 4.466575 -10.033166 2.975424 -3.092844 0.000000 0.000000 0.000000 0.000000 0.000000 0.000000 6.696063 -1.909038 0.767585 -0.000000 0.000000 0.000000 -0.000000 0.000000 0.000000 -1.535680 0.108220 1.447815 0.000000 0.000000 0.000000 0.000000 0.000000 0.000000 9.157287 -16.452238 62.750183 14.229839 19.312143 -0.474004 -1.741786 -7.572724 -5.081497 0.000000 0.000000 0.000000 13.118284 41.836343 63.858484 -29.108115 -12.556585 -4.144180 -1.964486 4.692332 -10.504885 0.000000 0.000000 0.000000
-7.122832 84.486807 338.962777 -5.558063 0.068299 -63.753186 -2.300961 -0.874580 63.414908 0.665190 -0.091713 -0.255575 22.069867 -9.151519 -3.254058 0.000000 0.000000 0.000000 7.749730 -3.286114 0.215721 -14.551543 -0.429703 -2.264578 20.475316 0.662229 5.063060 -10.566458 1.292901 -3.826409 0.000000 0.000000 0.000000 0.000000 0.000000 0.000000 6.714325 -1.571871 0.756699 -0.000000 0.000000 0.000000 -0.000000 0.000000 0.000000 -1.720169 0.103447 1.617682 0.000000 0.000000 0.000000 0.000000 0.000000 0.000000 7.849560 -16.119056 62.192441 12.190595 18.482208 -0.084640 -1.202689 -8.908693 -6.414617 0.000000 0.000000 0.000000 12.163351 38.937795 63.702408 -26.697928 -12.428459 -3.727273 -1.137227 5.190019 -10.292948 0.000000 0.000000 0.000000
-5.159140 84.805895 339.182760 -5.552748 -0.226416 -62.516186 -2.367556 -0.918090 62.151620 0.628814 -0.100936 -0.262984 22.176600 -9.840227 -2.481633 0.000000 0.000000 0.000000 8.979103 -3.187432 -0.067914 -17.321689 -0.898183 -2.445182 22.349644 3.882104 5.356704 -9.442282 -1.291959 -4.061985 0.000000 0.000000 0.000000 0.000000 0.000000 0.000000 6.847393 -1.263664 0.759990 -0.000000 0.000000 0.000000 -0.000000 0.000000 0.000000 -1.913834 0.098723 1.796230 0.000000 0.000000 0.000000 0.000000 0.000000 0.000000 6.604698 -15.303490 60.850637 9.400792 17.883412 0.209340 -1.190993 -10.560678 -6.661950 0.000000 0.000000 0.000000 11.456124 35.551501 62.485092 -21.297868 -11.733939 -2.642698 -3.030988 4.836053 -9.940641 0.000000 0.000000 0.000000
-3.087240 85.095511 339.382870 -5.339237 -0.526604 -61.173838 -2.426006 -0.926403 60.796879 0.581817 -0.092999 -0.259837 21.835299 -10.554007 -1.582168 0.000000 0.000000 0.000000 9.260643 -3.558410 -0.294110 -18.796217 -0.468464 -2.281632 23.776813 6.866366 5.540224 -9.421257 -5.509537 -5.253905 0.000000 0.000000 0.000000 0.000000 0.000000 0.000000 6.751440 -0.975312 0.737699 -0.000000 0.000000 0.000000 -0.000000 0.000000 0.000000 -2.091569 0.093440 1.959978 0.000000 0.000000 0.000000 0.000000 0.000000 0.000000 5.577634 -14.378317 59.510337 5.612166 18.036990 0.460126 -3.624975 -14.507747 -7.815366 0.000000 0.000000 0.000000 10.427550 31.246603 61.259783 -15.381743 -10.236888 -1.612983 -4.615078 4.125876 -9.583083 0.000000 0.000000 0.000000
-0.962433 85.434347 339.498613 -5.061428 -0.720556 -60.300448 -2.406673 -0.967661 59.918180 0.630826 -0.079331 -0.241825 23.081532 -11.970735 -1.217627 0.000000 0.000000 0.000000 8.472582 -4.183058 -0.375091 -18.747407 0.870750 -1.801150 23.801376 8.556497 5.380519 -10.361807 -8.977979 -6.445294 0.000000 0.000000 0.000000 0.000000 0.000000 0.000000 6.472858 -0.733063 0.697552 -0.000000 0.000000 0.000000 -0.000000 0.000000 0.000000 -2.267474 0.077021 2.119142 0.000000 0.000000 0.000000 0.000000 0.000000 0.000000 4.992700 -13.856040 58.680599 3.041203 19.372262 0.587631 -19.693767 -24.406808 -12.528851 0.000000 0.000000 0.000000 9.143120 26.506189 60.597675 -8.744718 -7.930724 -0.690011 -6.592860 3.143674 -9.099047 0.000000 0.000000 0.000000
1.031901 85.718967 339.644138 -4.725522 -1.034268 -59.487714 -2.448825 -0.922339 59.109325 0.559914 -0.061442 -0.232369 21.964671 -11.384974 -1.110073 0.000000 0.000000 0.000000 7.183638 -4.876252 -0.361965 -17.170553 2.798534 -1.059566 22.109928 8.874418 4.859213 -10.130847 -11.220813 -6.849983 0.000000 0.000000 0.000000 0.000000 0.000000 0.000000 6.209482 -0.473547 0.659617 -0.000000 0.000000 0.000000 -0.000000 0.000000 0.000000 -2.425405 0.056813 2.260664 0.000000 0.000000 0.000000 0.000000 0.000000 0.000000 3.346597 -13.293200 57.758952 3.081510 19.982682 0.473494 -41.402983 -32.522351 -20.574309 0.000000 0.000000 0.000000 8.241509 21.629001 60.017067 -1.745759 -3.904248 -0.303204 -9.138497 1.217369 -8.654045 0.000000 0.000000 0.000000
